<?xml version="1.0" encoding="UTF-8" standalone="no"?>
<!DOCTYPE svg PUBLIC "-//W3C//DTD SVG 1.1//EN" "http://www.w3.org/Graphics/SVG/1.1/DTD/svg11.dtd">
<svg xmlns="http://www.w3.org/2000/svg" version="1.1" viewBox="0.00 0.00 1060.00 1060.00">
<path d="
  M 406.02 415.05
  C 351.44 421.25 308.65 457.45 295.51 511.00
  Q 287.56 543.41 295.41 576.31
  Q 306.71 623.66 348.07 651.64
  Q 348.79 652.14 348.00 651.75
  C 311.80 634.33 277.22 612.96 251.44 596.55
  C 239.24 588.79 227.65 579.92 216.53 569.34
  Q 198.74 552.43 185.19 539.06
  C 182.26 536.18 180.36 533.53 179.93 529.15
  Q 177.35 502.52 181.16 476.17
  C 187.56 432.04 216.26 392.21 252.89 367.71
  Q 273.15 354.16 292.21 345.73
  Q 330.36 328.85 370.50 332.69
  Q 373.74 333.00 375.25 333.04
  Q 375.82 333.06 375.96 332.51
  C 396.26 251.29 460.62 192.28 544.01 181.98
  C 560.78 179.91 581.01 180.37 598.40 183.52
  C 666.57 195.85 717.07 239.45 746.47 301.03
  Q 751.66 311.88 753.16 322.33
  Q 753.24 322.86 753.76 322.93
  Q 768.97 324.99 783.82 328.12
  C 851.41 342.35 917.81 382.79 937.91 453.36
  C 943.65 473.53 945.04 493.30 942.10 513.84
  C 931.98 584.57 875.00 635.52 810.05 656.45
  C 772.22 668.63 732.78 671.99 693.23 670.33
  Q 683.12 669.91 673.28 668.75
  C 585.81 658.44 509.22 617.27 441.05 564.77
  A 0.23 0.23 0.0 0 1 441.26 564.37
  Q 509.46 589.07 582.17 588.33
  A 0.41 0.41 0.0 0 1 582.37 589.10
  Q 566.46 597.75 549.16 602.44
  C 542.42 604.26 534.06 605.62 526.54 607.15
  A 0.45 0.45 0.0 0 0 526.46 608.01
  C 556.82 620.64 590.00 629.78 622.75 632.90
  C 625.65 633.18 628.30 633.97 631.11 634.00
  C 646.89 634.19 663.32 635.59 679.01 633.36
  C 686.65 632.27 694.00 631.01 701.53 629.30
  C 752.36 617.76 798.36 576.67 801.74 522.06
  C 805.07 468.23 765.49 432.05 716.60 418.38
  C 705.63 415.32 696.02 414.63 684.75 415.11
  C 679.94 415.31 677.43 412.73 675.42 408.34
  C 655.16 364.20 616.17 329.63 566.32 325.26
  Q 535.07 322.52 506.79 334.30
  Q 452.65 356.85 432.26 412.93
  Q 432.09 413.39 431.60 413.40
  Q 422.61 413.65 413.71 414.02
  C 411.03 414.13 408.41 414.77 406.02 415.05
  Z"
/>
<path d="
  M 192.27 589.74
  C 213.48 609.89 232.58 623.62 258.54 641.97
  Q 266.32 647.47 298.81 665.71
  C 330.87 683.70 356.79 694.45 393.69 709.79
  Q 403.36 713.82 432.18 723.81
  C 457.11 732.45 482.87 739.79 508.81 744.63
  Q 548.20 751.98 588.17 755.09
  C 590.70 755.28 594.24 756.20 597.48 755.99
  C 599.25 755.87 600.75 756.68 602.28 756.75
  Q 616.51 757.43 630.69 758.79
  Q 634.35 759.14 639.46 759.05
  C 643.51 758.97 648.13 760.05 652.61 759.57
  C 656.08 759.20 659.40 759.65 663.25 759.66
  Q 692.58 759.76 711.22 759.17
  C 721.44 758.84 734.04 757.23 745.50 756.74
  Q 746.05 756.72 747.51 756.25
  C 749.35 755.66 751.43 756.16 753.40 755.74
  Q 756.13 755.17 757.17 755.08
  C 794.78 751.63 831.84 742.55 865.54 728.76
  Q 871.98 726.13 894.30 714.81
  Q 910.58 706.56 929.41 690.40
  C 946.37 675.85 960.10 656.68 965.62 635.34
  C 971.23 613.66 968.27 588.80 961.05 567.70
  C 958.98 561.64 959.56 556.90 961.46 550.27
  Q 966.06 534.17 970.96 518.10
  A 0.27 0.27 0.0 0 1 971.45 518.04
  C 982.26 534.86 993.53 551.70 1002.96 569.34
  Q 1013.23 588.53 1016.51 594.97
  C 1032.09 625.54 1040.94 662.31 1039.31 696.53
  C 1037.86 727.09 1025.09 755.03 1004.33 777.23
  C 993.17 789.17 982.12 798.82 967.52 807.14
  Q 950.94 816.60 941.03 822.01
  Q 937.58 823.89 932.49 825.73
  C 912.65 832.86 898.12 838.04 879.51 841.84
  Q 853.77 847.09 827.74 850.71
  Q 827.50 850.74 823.73 851.00
  C 821.88 851.13 820.10 851.73 818.42 851.92
  C 793.91 854.80 764.14 857.58 737.67 858.05
  C 730.50 858.18 722.41 858.91 716.75 858.71
  Q 687.51 857.66 658.25 856.92
  C 639.44 856.44 619.36 853.67 599.92 852.02
  Q 599.19 851.96 595.53 851.21
  C 593.55 850.80 591.28 851.07 589.49 850.85
  Q 552.65 846.30 519.24 838.77
  Q 422.81 817.03 332.21 774.85
  C 295.33 757.68 259.24 737.42 224.83 715.72
  C 206.97 704.45 189.97 691.79 172.99 679.26
  Q 164.98 673.35 157.39 666.74
  C 110.00 625.49 62.45 584.49 34.25 528.25
  C 19.81 499.44 11.83 465.88 13.99 432.90
  C 16.65 392.21 42.97 359.57 74.51 336.42
  C 85.24 328.55 99.13 320.60 111.53 313.02
  Q 120.96 307.27 129.09 303.52
  C 156.73 290.81 186.32 281.00 216.38 275.82
  C 220.51 275.11 224.57 273.85 228.61 273.38
  C 237.43 272.35 246.23 270.73 254.92 270.08
  C 267.35 269.17 279.96 267.72 292.13 267.11
  C 305.94 266.42 320.22 265.21 333.56 265.28
  Q 361.21 265.42 389.73 267.19
  A 1.29 1.29 0.0 0 1 390.84 268.97
  C 388.01 275.75 382.40 280.62 374.97 281.40
  C 361.07 282.88 346.67 283.97 333.35 285.91
  Q 326.13 286.96 318.93 288.08
  C 296.94 291.51 275.03 299.09 253.53 304.88
  C 232.05 310.66 212.22 321.12 195.58 330.60
  C 188.81 334.46 182.98 339.43 176.69 345.11
  C 152.02 367.39 131.37 398.78 125.69 431.97
  C 124.81 437.05 123.27 442.13 122.97 447.09
  C 121.37 473.02 127.97 498.10 139.76 521.02
  C 140.43 522.33 142.18 524.73 142.80 526.75
  C 143.96 530.53 146.47 534.60 148.28 537.23
  C 155.63 547.94 164.84 560.93 174.03 571.07
  Q 182.80 580.74 192.27 589.74
  Z"
/>
</svg>
